#N canvas 481 115 946 702 10;
#X obj 311 547 dac~;
#X obj 318 444 *~ 0;
#X obj 252 205 phasor~ 440;
#X floatatom 381 195 5 0 0 0 - - -;
#X floatatom 478 225 5 0 0 0 - - -;
#X floatatom 405 93 5 0 0 0 - - -;
#X floatatom 329 170 5 0 0 0 - - -;
#X obj 336 379 bp~ 400;
#X obj 425 419 / 127;
#X obj 337 131 * 8;
#X obj 391 154 * 11;
#X obj 276 34 receive pitch;
#X obj 612 166 receive volume;
#X msg 435 38 32;
#X msg 516 164 64;
#X obj 569 24 receive init;
#X msg 434 204 0.2;
#X obj 419 498 rfft~;
#X obj 567 456 metro 1000;
#X obj 64 234 phasor~ 880;
#X obj 175 294 +~;
#X obj 431 554 send real;
#X obj 577 540 send complex;
#X msg 243 98 0.41;
#X floatatom 107 162 5 0 0 0 - - -;
#X obj 213 202 *;
#X obj 230 157 pow;
#X msg 180 68 2;
#X floatatom 107 136 5 0 0 0 - - -;
#X connect 1 0 0 0;
#X connect 1 0 0 1;
#X connect 1 0 17 0;
#X connect 2 0 20 1;
#X connect 3 0 7 1;
#X connect 4 0 8 0;
#X connect 5 0 9 0;
#X connect 5 0 10 0;
#X connect 6 0 2 0;
#X connect 7 0 1 0;
#X connect 8 0 1 1;
#X connect 9 0 6 0;
#X connect 9 0 25 0;
#X connect 10 0 3 0;
#X connect 11 0 5 0;
#X connect 12 0 4 0;
#X connect 13 0 5 0;
#X connect 14 0 4 0;
#X connect 15 0 13 0;
#X connect 15 0 14 0;
#X connect 15 0 16 0;
#X connect 15 0 18 0;
#X connect 15 0 23 0;
#X connect 15 0 27 0;
#X connect 16 0 7 2;
#X connect 17 0 21 0;
#X connect 17 1 22 0;
#X connect 18 0 21 0;
#X connect 18 0 22 0;
#X connect 19 0 20 0;
#X connect 20 0 7 0;
#X connect 23 0 26 1;
#X connect 25 0 19 0;
#X connect 25 0 24 0;
#X connect 26 0 25 1;
#X connect 26 0 28 0;
#X connect 27 0 26 0;
