#N canvas 292 112 946 702 10;
#X obj 269 428 dac~;
#X obj 276 325 *~ 0;
#X obj 252 205 phasor~ 440;
#X floatatom 381 195 5 0 0 0 - - -;
#X floatatom 478 225 5 0 0 0 - - -;
#X floatatom 389 101 5 0 0 0 - - -;
#X floatatom 329 170 5 0 0 0 - - -;
#X obj 294 260 bp~ 400;
#X obj 383 300 / 127;
#X obj 323 141 * 8;
#X obj 391 154 * 11;
#X obj 276 34 receive pitch;
#X obj 612 166 receive volume;
#X msg 432 54 32;
#X msg 516 164 64;
#X obj 569 24 receive init;
#X msg 434 204 0.2;
#X connect 1 0 0 0;
#X connect 1 0 0 1;
#X connect 2 0 7 0;
#X connect 3 0 7 1;
#X connect 4 0 8 0;
#X connect 5 0 9 0;
#X connect 5 0 10 0;
#X connect 6 0 2 0;
#X connect 7 0 1 0;
#X connect 8 0 1 1;
#X connect 9 0 6 0;
#X connect 10 0 3 0;
#X connect 11 0 5 0;
#X connect 12 0 4 0;
#X connect 13 0 5 0;
#X connect 14 0 4 0;
#X connect 15 0 13 0;
#X connect 15 0 14 0;
#X connect 15 0 16 0;
#X connect 16 0 7 2;
